<svg width="51" height="51" viewBox="0 0 51 51" fill="none" xmlns="http://www.w3.org/2000/svg">
<g clip-path="url(#clip0_149_21)">
<path d="M11.6472 4.23296C11.459 3.99091 11.2215 3.79166 10.9504 3.64846C10.6793 3.50525 10.3808 3.42136 10.0748 3.40237C9.76882 3.38338 9.46228 3.42971 9.17556 3.53829C8.88884 3.64688 8.62851 3.81522 8.41185 4.03215L5.11597 7.33121C3.57641 8.87396 3.00904 11.0574 3.6816 12.9731C6.47302 20.9023 11.0138 28.1013 16.9671 34.0361C22.902 39.9893 30.101 44.5301 38.0301 47.3216C39.9458 47.9941 42.1292 47.4268 43.672 45.8872L46.9678 42.5913C47.1848 42.3747 47.3531 42.1143 47.4617 41.8276C47.5703 41.5409 47.6166 41.2344 47.5976 40.9284C47.5786 40.6224 47.4948 40.3239 47.3515 40.0528C47.2083 39.7817 47.0091 39.5442 46.767 39.356L39.4135 33.6377C39.1549 33.4371 38.8541 33.2979 38.5338 33.2305C38.2136 33.1631 37.8822 33.1694 37.5647 33.2488L30.5841 34.9923C29.6523 35.2252 28.6761 35.2129 27.7506 34.9565C26.825 34.7001 25.9816 34.2084 25.3024 33.5293L17.4739 25.6976C16.7942 25.0188 16.302 24.1755 16.045 23.2499C15.788 22.3243 15.7752 21.3479 16.0077 20.4159L17.7544 13.4353C17.8338 13.1178 17.8401 12.7864 17.7727 12.4662C17.7053 12.1459 17.5661 11.8451 17.3655 11.5865L11.6472 4.23296ZM6.00529 1.62878C6.56308 1.0708 7.2332 0.637879 7.97114 0.358753C8.70909 0.079626 9.49797 -0.0393166 10.2854 0.0098228C11.0728 0.0589622 11.8408 0.275059 12.5383 0.643765C13.2358 1.01247 13.8469 1.52535 14.331 2.14834L20.0494 9.49871C21.0981 10.847 21.4678 12.6033 21.0535 14.2608L19.3099 21.2415C19.2198 21.603 19.2246 21.9817 19.324 22.3409C19.4235 22.7 19.614 23.0273 19.8773 23.291L27.709 31.1227C27.973 31.3865 28.3009 31.5774 28.6606 31.6768C29.0203 31.7762 29.3997 31.7808 29.7617 31.6901L36.7392 29.9465C37.5571 29.742 38.4109 29.7261 39.2359 29.9001C40.0609 30.074 40.8355 30.4332 41.5013 30.9506L48.8517 36.669C51.4941 38.7249 51.7364 42.6296 49.3712 44.9915L46.0753 48.2874C43.7166 50.6462 40.1912 51.6821 36.9049 50.525C28.4937 47.5655 20.8567 42.7502 14.5605 36.4363C8.24702 30.141 3.43172 22.5052 0.471786 14.0951C-0.682089 10.812 0.353849 7.2834 2.7126 4.92465L6.00847 1.62878H6.00529Z" fill="white"/>
</g>
<defs>
<clipPath id="clip0_149_21">
<rect width="51" height="51" fill="white"/>
</clipPath>
</defs>
</svg>
