<svg width="58" height="58" viewBox="0 0 58 58" fill="none" xmlns="http://www.w3.org/2000/svg">
<path d="M8.06689 41.0835C10.1876 44.7586 13.2388 47.8103 16.9136 49.9315C20.5884 52.0527 24.757 53.1686 29.0001 53.1668C33.2431 53.1686 37.4118 52.0527 41.0865 49.9315C44.7613 47.8103 47.8126 44.7586 49.9332 41.0835M8.06689 16.9168C10.1876 13.2418 13.2388 10.1901 16.9136 8.06887C20.5884 5.94766 24.757 4.83178 29.0001 4.8335C33.2431 4.83178 37.4118 5.94766 41.0865 8.06887C44.7613 10.1901 47.8126 13.2418 49.9332 16.9168" stroke="white" stroke-width="1.5" stroke-linecap="round" stroke-linejoin="round"/>
<path d="M31.4167 53.0458C31.4167 53.0458 34.8194 48.5677 36.963 41.0833M31.4167 4.9541C31.4167 4.9541 34.8194 9.42977 36.963 16.9166M26.5834 53.0458C26.5834 53.0458 23.1807 48.5701 21.0372 41.0833M26.5834 4.9541C26.5834 4.9541 23.1807 9.42977 21.0372 16.9166M21.7501 24.1666L25.3751 36.2499L29.0001 24.1666L32.6251 36.2499L36.2501 24.1666M2.41675 24.1666L6.04175 36.2499L9.66675 24.1666L13.2917 36.2499L16.9167 24.1666M41.0834 24.1666L44.7084 36.2499L48.3334 24.1666L51.9584 36.2499L55.5834 24.1666" stroke="white" stroke-width="1.5" stroke-linecap="round" stroke-linejoin="round"/>
</svg>
