<svg width="73" height="73" viewBox="0 0 73 73" fill="none" xmlns="http://www.w3.org/2000/svg">
<path d="M60.8332 54.7498H54.7499V28.1353L36.4999 39.5415L18.2499 28.1353V54.7498H12.1666V18.2498H15.8166L36.4999 31.1769L57.1832 18.2498H60.8332M60.8332 12.1665H12.1666C8.79034 12.1665 6.08325 14.8736 6.08325 18.2498V54.7498C6.08325 56.3632 6.72417 57.9106 7.86502 59.0514C9.00586 60.1922 10.5532 60.8332 12.1666 60.8332H60.8332C62.4466 60.8332 63.994 60.1922 65.1348 59.0514C66.2757 57.9106 66.9166 56.3632 66.9166 54.7498V18.2498C66.9166 16.6364 66.2757 15.0891 65.1348 13.9483C63.994 12.8074 62.4466 12.1665 60.8332 12.1665Z" fill="white"/>
</svg>
