<svg width="75" height="53" viewBox="0 0 75 53" fill="none" xmlns="http://www.w3.org/2000/svg">
<path d="M30 37.5L49.4625 26.25L30 15V37.5ZM73.35 8.1375C73.8375 9.9 74.175 12.2625 74.4 15.2625C74.6625 18.2625 74.775 20.85 74.775 23.1L75 26.25C75 34.4625 74.4 40.5 73.35 44.3625C72.4125 47.7375 70.2375 49.9125 66.8625 50.85C65.1 51.3375 61.875 51.675 56.925 51.9C52.05 52.1625 47.5875 52.275 43.4625 52.275L37.5 52.5C21.7875 52.5 12 51.9 8.1375 50.85C4.7625 49.9125 2.5875 47.7375 1.65 44.3625C1.1625 42.6 0.825 40.2375 0.6 37.2375C0.3375 34.2375 0.225 31.65 0.225 29.4L0 26.25C0 18.0375 0.6 12 1.65 8.1375C2.5875 4.7625 4.7625 2.5875 8.1375 1.65C9.9 1.1625 13.125 0.824999 18.075 0.599999C22.95 0.337499 27.4125 0.225 31.5375 0.225L37.5 0C53.2125 0 63 0.6 66.8625 1.65C70.2375 2.5875 72.4125 4.7625 73.35 8.1375Z" fill="white"/>
</svg>
